<svg width="40" height="33" viewBox="0 0 40 33" fill="none" xmlns="http://www.w3.org/2000/svg">
<path d="M32.7832 4.41662C32.773 4.39659 32.756 4.3809 32.7354 4.37235C30.3527 3.26613 27.8383 2.4773 25.2551 2.02562C25.2316 2.0212 25.2073 2.02439 25.1858 2.03472C25.1642 2.04505 25.1464 2.062 25.1349 2.08317C24.7925 2.712 24.4817 3.35791 24.2036 4.01844C21.419 3.59071 18.5866 3.59071 15.802 4.01844C15.5221 3.35623 15.2063 2.71016 14.8561 2.08317C14.844 2.06246 14.8261 2.0459 14.8047 2.03564C14.7832 2.02537 14.7592 2.02188 14.7358 2.02562C12.1523 2.47635 9.6377 3.26524 7.2553 4.37241C7.23491 4.38116 7.2177 4.3961 7.20605 4.41517C2.44174 11.6147 1.13662 18.6373 1.77687 25.5729C1.77867 25.5899 1.78383 25.6063 1.79204 25.6213C1.80026 25.6362 1.81135 25.6493 1.82468 25.6599C4.59889 27.7384 7.70189 29.325 11.0012 30.3519C11.0245 30.3589 11.0493 30.3586 11.0723 30.351C11.0954 30.3433 11.1156 30.3287 11.1302 30.3091C11.8388 29.3334 12.4667 28.3003 13.0075 27.2201C13.0149 27.2053 13.0192 27.1891 13.0199 27.1725C13.0207 27.1559 13.018 27.1393 13.012 27.1238C13.006 27.1084 12.9968 27.0944 12.985 27.0828C12.9733 27.0711 12.9592 27.0622 12.9438 27.0565C11.9537 26.6731 10.9951 26.211 10.0771 25.6744C10.0604 25.6645 10.0464 25.6506 10.0363 25.6339C10.0262 25.6172 10.0203 25.5982 10.0192 25.5787C10.018 25.5591 10.0216 25.5396 10.0297 25.5218C10.0378 25.504 10.0501 25.4885 10.0655 25.4767C10.2587 25.3307 10.4485 25.1802 10.6348 25.0253C10.6511 25.0117 10.6709 25.003 10.6919 25.0001C10.7129 24.9973 10.7342 25.0004 10.7536 25.0091C16.7679 27.7866 23.2792 27.7866 29.2223 25.0091C29.2417 24.9998 29.2633 24.9963 29.2845 24.9989C29.3058 25.0015 29.3259 25.0101 29.3426 25.0239C29.5291 25.1796 29.7194 25.3305 29.9133 25.4767C29.9288 25.4884 29.9412 25.5038 29.9494 25.5215C29.9576 25.5392 29.9614 25.5587 29.9604 25.5783C29.9594 25.5978 29.9536 25.6168 29.9437 25.6336C29.9337 25.6503 29.9198 25.6644 29.9032 25.6744C28.9873 26.2155 28.0278 26.6773 27.0351 27.055C27.0196 27.061 27.0056 27.0701 26.994 27.0819C26.9823 27.0937 26.9732 27.1078 26.9673 27.1234C26.9614 27.139 26.9588 27.1557 26.9597 27.1724C26.9606 27.189 26.965 27.2053 26.9726 27.2201C27.5224 28.2943 28.1494 29.3261 28.8484 30.3074C28.8626 30.3275 28.8827 30.3426 28.9058 30.3506C28.929 30.3585 28.954 30.3589 28.9774 30.3517C32.2826 29.3283 35.3911 27.7415 38.1687 25.6599C38.1823 25.6499 38.1935 25.6371 38.2018 25.6223C38.21 25.6076 38.2151 25.5912 38.2166 25.5743C38.9831 17.5561 36.9333 10.5911 32.7832 4.41662ZM13.9057 21.3498C12.0949 21.3498 10.6029 19.6684 10.6029 17.6033C10.6029 15.5383 12.066 13.8567 13.9057 13.8567C15.7597 13.8567 17.2373 15.5529 17.2084 17.6032C17.2084 19.6684 15.7452 21.3498 13.9057 21.3498ZM26.1169 21.3498C24.3062 21.3498 22.8142 19.6684 22.8142 17.6033C22.8142 15.5383 24.2773 13.8567 26.1169 13.8567C27.9711 13.8567 29.4486 15.5529 29.4197 17.6032C29.4197 19.6684 27.9711 21.3498 26.1169 21.3498Z" fill="#462D08"/>
</svg>
