<svg width="40" height="47" viewBox="0 0 40 47" fill="none" xmlns="http://www.w3.org/2000/svg">
<g clip-path="url(#clip0_347:48)">
<path d="M20.0089 12.692C14.3303 12.692 9.74999 17.3097 9.74999 23.0345C9.74999 28.7594 14.3303 33.3771 20.0089 33.3771C25.6875 33.3771 30.2678 28.7594 30.2678 23.0345C30.2678 17.3097 25.6875 12.692 20.0089 12.692ZM20.0089 29.7586C16.3393 29.7586 13.3393 26.7431 13.3393 23.0345C13.3393 19.326 16.3303 16.3105 20.0089 16.3105C23.6875 16.3105 26.6786 19.326 26.6786 23.0345C26.6786 26.7431 23.6786 29.7586 20.0089 29.7586ZM33.0803 12.2689C33.0803 13.6101 32.0089 14.6813 30.6875 14.6813C29.3571 14.6813 28.2946 13.6011 28.2946 12.2689C28.2946 10.9367 29.3661 9.85655 30.6875 9.85655C32.0089 9.85655 33.0803 10.9367 33.0803 12.2689ZM39.875 14.7173C39.7232 11.4858 38.9911 8.62336 36.6428 6.26501C34.3036 3.90665 31.4643 3.16854 28.2589 3.00652C24.9553 2.81749 15.0536 2.81749 11.75 3.00652C8.55357 3.15954 5.71428 3.89765 3.36607 6.25601C1.01785 8.61436 0.294641 11.4768 0.133926 14.7083C-0.0535736 18.0388 -0.0535736 28.0213 0.133926 31.3518C0.285712 34.5833 1.01785 37.4457 3.36607 39.8041C5.71428 42.1624 8.54464 42.9005 11.75 43.0626C15.0536 43.2516 24.9553 43.2516 28.2589 43.0626C31.4643 42.9095 34.3036 42.1714 36.6428 39.8041C38.9821 37.4457 39.7143 34.5833 39.875 31.3518C40.0625 28.0213 40.0625 18.0478 39.875 14.7173ZM35.6071 34.9253C34.9107 36.6896 33.5625 38.0488 31.8036 38.7599C29.1696 39.8131 22.9196 39.57 20.0089 39.57C17.0982 39.57 10.8393 39.8041 8.21428 38.7599C6.46428 38.0578 5.11607 36.6986 4.41071 34.9253C3.36607 32.2699 3.60714 25.969 3.60714 23.0345C3.60714 20.1001 3.375 13.7901 4.41071 11.1437C5.10714 9.37948 6.45535 8.02027 8.21428 7.30917C10.8482 6.25601 17.0982 6.49904 20.0089 6.49904C22.9196 6.49904 29.1786 6.26501 31.8036 7.30917C33.5536 8.01127 34.9018 9.37048 35.6071 11.1437C36.6518 13.7991 36.4107 20.1001 36.4107 23.0345C36.4107 25.969 36.6518 32.2789 35.6071 34.9253Z" fill="#462D08"/>
</g>
<defs>
<clipPath id="clip0_347:48">
<rect width="40" height="46.087" fill="white"/>
</clipPath>
</defs>
</svg>
