<svg width="1146" height="362" viewBox="0 0 1146 362" fill="none" xmlns="http://www.w3.org/2000/svg">
<g filter="url(#filter0_d_379:446)">
<rect x="775.001" y="136" width="25" height="25" fill="white"/>
<rect x="775.001" y="111" width="25" height="25" fill="white"/>
<rect x="775.001" y="86" width="25" height="25" fill="white"/>
<rect x="775.001" y="61" width="25" height="25" fill="white"/>
<rect x="775.001" y="36" width="25" height="25" fill="white"/>
<rect x="775" y="11" width="25" height="25" fill="white"/>
<rect x="960.001" y="111" width="25" height="25" fill="white"/>
<rect x="985.001" y="61" width="25" height="25" fill="white"/>
<rect x="1010" y="86" width="25" height="25" fill="white"/>
<rect x="960.001" y="86" width="25" height="25" fill="white"/>
<rect x="985.001" y="136.148" width="25" height="25" fill="white"/>
<rect x="1010" y="136.148" width="25" height="25" fill="white"/>
<rect x="300" y="111" width="25" height="25" fill="white"/>
<rect x="325" y="61" width="25" height="25" fill="white"/>
<rect x="350" y="86" width="25" height="25" fill="white"/>
<rect x="300" y="86" width="25" height="25" fill="white"/>
<rect x="325" y="136.148" width="25" height="25" fill="white"/>
<rect x="350" y="136.148" width="25" height="25" fill="white"/>
<rect x="110" y="111" width="25" height="25" fill="white"/>
<rect x="135" y="61" width="25" height="25" fill="white"/>
<rect x="160" y="86" width="25" height="25" fill="white"/>
<rect x="110" y="86" width="25" height="25" fill="white"/>
<rect x="135" y="136.148" width="25" height="25" fill="white"/>
<rect x="160" y="136.148" width="25" height="25" fill="white"/>
<rect x="680" y="111" width="25" height="25" fill="white"/>
<rect x="680" y="136" width="25" height="25" fill="white"/>
<rect x="705" y="136" width="25" height="25" fill="white"/>
<rect x="730" y="111" width="25" height="25" fill="white"/>
<rect x="730" y="136" width="25" height="25" fill="white"/>
<rect x="730" y="86" width="25" height="25" fill="white"/>
<rect x="730" y="61" width="25" height="25" fill="white"/>
<rect x="705" y="86" width="25" height="25" fill="white"/>
<rect width="25" height="25" transform="matrix(-1 0 0 1 1130 87)" fill="white"/>
<rect width="25" height="25" transform="matrix(-1 0 0 1 1130 112)" fill="white"/>
<rect width="25" height="25" transform="matrix(-1 0 0 1 1130 137)" fill="white"/>
<rect width="25" height="25" transform="matrix(-1 0 0 1 1130 62)" fill="white"/>
<rect width="25" height="25" transform="matrix(-1 0 0 1 1130 37)" fill="white"/>
<rect width="25" height="25" transform="matrix(-1 0 0 1 1105 87)" fill="white"/>
<rect width="25" height="25" transform="matrix(-1 0 0 1 1080 112)" fill="white"/>
<rect width="25" height="25" transform="matrix(-1 0 0 1 1105 137)" fill="white"/>
<rect width="25" height="25" transform="matrix(-1 0 0 1 1130 12)" fill="white"/>
<rect x="205" y="86" width="25" height="25" fill="white"/>
<rect x="230" y="61" width="25" height="25" fill="white"/>
<rect x="255" y="61" width="25" height="25" fill="white"/>
<rect x="205" y="111" width="25" height="25" fill="white"/>
<rect x="230" y="136" width="25" height="25" fill="white"/>
<rect x="255" y="136" width="25" height="25" fill="white"/>
<rect x="865.001" y="137" width="25" height="25" fill="white"/>
<rect x="915.001" y="137" width="25" height="25" fill="white"/>
<rect x="890.001" y="112" width="25" height="25" fill="white"/>
<rect x="915.001" y="87" width="25" height="25" fill="white"/>
<rect x="890.001" y="62" width="25" height="25" fill="white"/>
<rect x="915.001" y="62" width="25" height="25" fill="white"/>
<rect x="890.001" y="137" width="25" height="25" fill="white"/>
<rect x="865.001" y="62" width="25" height="25" fill="white"/>
<rect x="820.001" y="136" width="25" height="25" fill="white"/>
<rect x="820.001" y="111" width="25" height="25" fill="white"/>
<rect x="820.001" y="86" width="25" height="25" fill="white"/>
<rect x="820.001" y="36" width="25" height="25" fill="white"/>
<rect x="585" y="61" width="25" height="25" fill="white"/>
<rect x="585" y="86" width="25" height="25" fill="white"/>
<rect x="585" y="111" width="25" height="25" fill="white"/>
<rect x="585" y="136" width="25" height="25" fill="white"/>
<rect x="610" y="61" width="25" height="25" fill="white"/>
<rect x="635" y="86" width="25" height="25" fill="white"/>
<rect x="395" y="61" width="25" height="25" fill="white"/>
<rect x="395" y="86" width="25" height="25" fill="white"/>
<rect x="395" y="111" width="25" height="25" fill="white"/>
<rect x="395" y="136" width="25" height="25" fill="white"/>
<rect x="420" y="61" width="25" height="25" fill="white"/>
<rect x="445" y="86" width="25" height="25" fill="white"/>
<rect x="445" y="111" width="25" height="25" fill="white"/>
<rect x="445" y="136" width="25" height="25" fill="white"/>
<rect x="515" y="11" width="25" height="25" fill="white"/>
<rect x="515" y="36" width="25" height="25" fill="white"/>
<rect x="490" y="49" width="25" height="25" fill="white"/>
<rect x="540" y="49" width="25" height="25" fill="white"/>
<rect x="515" y="61" width="25" height="25" fill="white"/>
<rect x="515" y="86" width="25" height="25" fill="white"/>
<rect x="515" y="111" width="25" height="25" fill="white"/>
<rect x="515" y="136" width="25" height="25" fill="white"/>
<rect x="15" y="11" width="25" height="25" fill="white"/>
<rect x="15" y="36" width="25" height="25" fill="white"/>
<rect x="15" y="61" width="25" height="25" fill="white"/>
<rect x="15" y="86" width="25" height="25" fill="white"/>
<rect x="15" y="111" width="25" height="25" fill="white"/>
<rect x="15" y="136" width="25" height="25" fill="white"/>
<rect x="40" y="136" width="25" height="25" fill="white"/>
<rect x="65" y="111" width="25" height="25" fill="white"/>
<rect x="65" y="86" width="25" height="25" fill="white"/>
<rect x="65" y="61" width="25" height="25" fill="white"/>
<rect x="65" y="36" width="25" height="25" fill="white"/>
<rect x="40" y="11" width="25" height="25" fill="white"/>
<rect x="300" y="242" width="25" height="25" fill="white"/>
<rect x="300" y="267" width="25" height="25" fill="white"/>
<rect x="325" y="267" width="25" height="25" fill="white"/>
<rect x="350" y="292" width="25" height="25" fill="white"/>
<rect x="350" y="317" width="25" height="25" fill="white"/>
<rect x="350" y="242" width="25" height="25" fill="white"/>
<rect x="300" y="292" width="25" height="25" fill="white"/>
<rect x="300" y="317" width="25" height="25" fill="white"/>
<rect x="300" y="217" width="25" height="25" fill="white"/>
<rect x="300" y="192" width="25" height="25" fill="white"/>
<rect x="135" y="317" width="25" height="25" fill="white"/>
<rect x="160" y="292" width="25" height="25" fill="white"/>
<rect x="160" y="267" width="25" height="25" fill="white"/>
<rect x="160" y="242" width="25" height="25" fill="white"/>
<rect x="110" y="292" width="25" height="25" fill="white"/>
<rect x="110" y="267" width="25" height="25" fill="white"/>
<path d="M110 242H135V267H110V242Z" fill="white"/>
<rect x="205" y="267" width="25" height="25" fill="white"/>
<rect x="230" y="242" width="25" height="25" fill="white"/>
<rect x="255" y="242" width="25" height="25" fill="white"/>
<rect x="205" y="292" width="25" height="25" fill="white"/>
<rect x="230" y="317" width="25" height="25" fill="white"/>
<rect x="255" y="317" width="25" height="25" fill="white"/>
<rect x="15" y="192" width="25" height="25" fill="white"/>
<rect x="15" y="217" width="25" height="25" fill="white"/>
<rect x="15" y="242" width="25" height="25" fill="white"/>
<rect x="15" y="267" width="25" height="25" fill="white"/>
<rect x="15" y="292" width="25" height="25" fill="white"/>
<rect x="15" y="317" width="25" height="25" fill="white"/>
<rect x="40" y="317" width="25" height="25" fill="white"/>
<rect x="65" y="292" width="25" height="25" fill="white"/>
<rect x="65" y="267" width="25" height="25" fill="white"/>
<rect x="65" y="242" width="25" height="25" fill="white"/>
<rect x="65" y="217" width="25" height="25" fill="white"/>
<rect x="40" y="192" width="25" height="25" fill="white"/>
<rect x="600" y="292" width="25" height="25" fill="white"/>
<rect x="625" y="242" width="25" height="25" fill="white"/>
<rect x="650" y="267" width="25" height="25" fill="white"/>
<rect x="600" y="267" width="25" height="25" fill="white"/>
<rect x="625" y="317.148" width="25" height="25" fill="white"/>
<rect x="650" y="317.148" width="25" height="25" fill="white"/>
<rect x="695" y="242" width="25" height="25" fill="white"/>
<rect x="695" y="267" width="25" height="25" fill="white"/>
<rect x="695" y="292" width="25" height="25" fill="white"/>
<rect x="695" y="317" width="25" height="25" fill="white"/>
<rect x="720" y="242" width="25" height="25" fill="white"/>
<rect x="745" y="267" width="25" height="25" fill="white"/>
<rect x="745" y="292" width="25" height="25" fill="white"/>
<rect x="745" y="317" width="25" height="25" fill="white"/>
<rect x="505" y="192" width="25" height="25" fill="white"/>
<rect x="505" y="217" width="25" height="25" fill="white"/>
<rect x="505" y="242" width="25" height="25" fill="white"/>
<rect x="505" y="267" width="25" height="25" fill="white"/>
<rect x="505" y="292" width="25" height="25" fill="white"/>
<rect x="505" y="317" width="25" height="25" fill="white"/>
<rect x="530" y="317" width="25" height="25" fill="white"/>
<rect x="555" y="292" width="25" height="25" fill="white"/>
<rect x="555" y="267" width="25" height="25" fill="white"/>
<rect x="555" y="242" width="25" height="25" fill="white"/>
<rect x="555" y="217" width="25" height="25" fill="white"/>
<rect x="530" y="192" width="25" height="25" fill="white"/>
</g>
<defs>
<filter id="filter0_d_379:446" x="0" y="0" width="1145" height="361.148" filterUnits="userSpaceOnUse" color-interpolation-filters="sRGB">
<feFlood flood-opacity="0" result="BackgroundImageFix"/>
<feColorMatrix in="SourceAlpha" type="matrix" values="0 0 0 0 0 0 0 0 0 0 0 0 0 0 0 0 0 0 127 0" result="hardAlpha"/>
<feOffset dy="4"/>
<feGaussianBlur stdDeviation="7.5"/>
<feComposite in2="hardAlpha" operator="out"/>
<feColorMatrix type="matrix" values="0 0 0 0 0 0 0 0 0 0 0 0 0 0 0 0 0 0 0.15 0"/>
<feBlend mode="normal" in2="BackgroundImageFix" result="effect1_dropShadow_379:446"/>
<feBlend mode="normal" in="SourceGraphic" in2="effect1_dropShadow_379:446" result="shape"/>
</filter>
</defs>
</svg>
