<svg width="107" height="96" viewBox="0 0 107 96" fill="none" xmlns="http://www.w3.org/2000/svg">
<path fill-rule="evenodd" clip-rule="evenodd" d="M18.3207 73.2C18.6616 72.8308 19.0735 72.5342 19.5317 72.328C19.9899 72.1219 20.485 72.0103 20.9874 72H104.774C105.129 72.005 105.474 72.1123 105.769 72.309C106.064 72.5057 106.296 72.7835 106.437 73.1088C106.578 73.4342 106.622 73.7933 106.563 74.143C106.505 74.4927 106.347 74.8181 106.108 75.08L88.3474 94.8C88.0065 95.1692 87.5947 95.4658 87.1364 95.672C86.6782 95.8782 86.1831 95.9897 85.6807 96H1.84075C1.48625 95.995 1.14073 95.8877 0.845763 95.691C0.550803 95.4943 0.318953 95.2165 0.178103 94.8912C0.0372528 94.5658 -0.0065973 94.2067 0.0518227 93.857C0.110243 93.5073 0.268453 93.1819 0.507423 92.92L18.3207 73.2ZM106.188 56.8533C106.427 57.1152 106.585 57.4406 106.643 57.7903C106.702 58.14 106.658 58.4991 106.517 58.8245C106.376 59.1499 106.144 59.4276 105.849 59.6243C105.554 59.821 105.209 59.9283 104.854 59.9333L21.0407 60C20.5384 59.9897 20.0432 59.8782 19.585 59.672C19.1268 59.4658 18.7149 59.1692 18.3741 58.8L0.480753 39.1467C0.241793 38.8848 0.0835827 38.5594 0.0251527 38.2097C-0.0332673 37.86 0.0105828 37.5009 0.151433 37.1755C0.292283 36.8501 0.524133 36.5724 0.819103 36.3757C1.11406 36.179 1.45958 36.0717 1.81409 36.0667L85.6274 36C86.1298 36.0103 86.6249 36.1218 87.0831 36.328C87.5413 36.5342 87.9532 36.8308 88.2941 37.2L106.188 56.8533ZM18.3207 1.2C18.6616 0.830818 19.0735 0.534244 19.5317 0.328046C19.9899 0.121849 20.485 0.0102714 20.9874 0L104.828 0.0666667C105.182 0.0716595 105.528 0.178967 105.823 0.375681C106.118 0.572394 106.35 0.850138 106.49 1.1755C106.631 1.50087 106.675 1.86 106.617 2.20969C106.558 2.55939 106.4 2.88476 106.161 3.14667L88.3474 22.8C88.0065 23.1692 87.5947 23.4658 87.1364 23.672C86.6782 23.8782 86.1831 23.9897 85.6807 24H1.84075C1.48625 23.995 1.14073 23.8877 0.845763 23.691C0.550803 23.4943 0.318953 23.2165 0.178103 22.8912C0.0372528 22.5658 -0.0065973 22.2067 0.0518227 21.857C0.110243 21.5073 0.268453 21.1819 0.507423 20.92L18.3207 1.2Z" fill="url(#paint0_linear_977:13)"/>
<defs>
<linearGradient id="paint0_linear_977:13" x1="3.24075" y1="98.0933" x2="103.428" y2="-2.09332" gradientUnits="userSpaceOnUse">
<stop stop-color="#9945FF"/>
<stop offset="0.14" stop-color="#8A53F4"/>
<stop offset="0.42" stop-color="#6377D6"/>
<stop offset="0.79" stop-color="#24B0A7"/>
<stop offset="0.99" stop-color="#00D18C"/>
<stop offset="1" stop-color="#00D18C"/>
</linearGradient>
</defs>
</svg>
